<svg width="487" height="254" viewBox="0 0 487 254" fill="none" xmlns="http://www.w3.org/2000/svg">
<rect x="27" width="460" height="228" fill="#D3D3D3"/>
<rect y="26" width="460" height="228" fill="#DCDCDC"/>
<path d="M12.0455 42.3239V38.4545H13.0511V45H12.0455V43.892H11.9773C11.8239 44.2244 11.5852 44.5071 11.2614 44.7401C10.9375 44.9702 10.5284 45.0852 10.0341 45.0852C9.625 45.0852 9.26136 44.9957 8.94318 44.8168C8.625 44.6349 8.375 44.3622 8.19318 43.9986C8.01136 43.6321 7.92045 43.1705 7.92045 42.6136V38.4545H8.92614V42.5455C8.92614 43.0227 9.05966 43.4034 9.3267 43.6875C9.59659 43.9716 9.94034 44.1136 10.358 44.1136C10.608 44.1136 10.8622 44.0497 11.1207 43.9219C11.3821 43.794 11.6009 43.598 11.777 43.3338C11.956 43.0696 12.0455 42.733 12.0455 42.3239ZM14.8931 47.4545V38.4545H15.8647V39.4943H15.984C16.0579 39.3807 16.1602 39.2358 16.2908 39.0597C16.4244 38.8807 16.6147 38.7216 16.8619 38.5824C17.1119 38.4403 17.4499 38.3693 17.8761 38.3693C18.4272 38.3693 18.913 38.5071 19.3335 38.7827C19.7539 39.0582 20.082 39.4489 20.3178 39.9545C20.5536 40.4602 20.6715 41.0568 20.6715 41.7443C20.6715 42.4375 20.5536 43.0384 20.3178 43.5469C20.082 44.0526 19.7553 44.4446 19.3377 44.723C18.9201 44.9986 18.4386 45.1364 17.8931 45.1364C17.4727 45.1364 17.136 45.0668 16.8832 44.9276C16.6303 44.7855 16.4357 44.625 16.2994 44.446C16.163 44.2642 16.0579 44.1136 15.984 43.9943H15.8988V47.4545H14.8931ZM15.8817 41.7273C15.8817 42.2216 15.9542 42.6577 16.0991 43.0355C16.244 43.4105 16.4556 43.7045 16.734 43.9176C17.0124 44.1278 17.3533 44.233 17.7567 44.233C18.1772 44.233 18.5281 44.1222 18.8093 43.9006C19.0934 43.6761 19.3065 43.375 19.4485 42.9972C19.5934 42.6165 19.6658 42.1932 19.6658 41.7273C19.6658 41.267 19.5948 40.8523 19.4528 40.483C19.3136 40.1108 19.1019 39.8168 18.8178 39.6009C18.5366 39.3821 18.1829 39.2727 17.7567 39.2727C17.3477 39.2727 17.0039 39.3764 16.7255 39.5838C16.4471 39.7884 16.2369 40.0753 16.0948 40.4446C15.9528 40.8111 15.8817 41.2386 15.8817 41.7273ZM22.2056 47.4545V38.4545H23.1772V39.4943H23.2965C23.3704 39.3807 23.4727 39.2358 23.6033 39.0597C23.7369 38.8807 23.9272 38.7216 24.1744 38.5824C24.4244 38.4403 24.7624 38.3693 25.1886 38.3693C25.7397 38.3693 26.2255 38.5071 26.646 38.7827C27.0664 39.0582 27.3945 39.4489 27.6303 39.9545C27.8661 40.4602 27.984 41.0568 27.984 41.7443C27.984 42.4375 27.8661 43.0384 27.6303 43.5469C27.3945 44.0526 27.0678 44.4446 26.6502 44.723C26.2326 44.9986 25.7511 45.1364 25.2056 45.1364C24.7852 45.1364 24.4485 45.0668 24.1957 44.9276C23.9428 44.7855 23.7482 44.625 23.6119 44.446C23.4755 44.2642 23.3704 44.1136 23.2965 43.9943H23.2113V47.4545H22.2056ZM23.1942 41.7273C23.1942 42.2216 23.2667 42.6577 23.4116 43.0355C23.5565 43.4105 23.7681 43.7045 24.0465 43.9176C24.3249 44.1278 24.6658 44.233 25.0692 44.233C25.4897 44.233 25.8406 44.1222 26.1218 43.9006C26.4059 43.6761 26.619 43.375 26.761 42.9972C26.9059 42.6165 26.9783 42.1932 26.9783 41.7273C26.9783 41.267 26.9073 40.8523 26.7653 40.483C26.6261 40.1108 26.4144 39.8168 26.1303 39.6009C25.8491 39.3821 25.4954 39.2727 25.0692 39.2727C24.6602 39.2727 24.3164 39.3764 24.038 39.5838C23.7596 39.7884 23.5494 40.0753 23.4073 40.4446C23.2653 40.8111 23.1942 41.2386 23.1942 41.7273ZM32.2624 45.1364C31.6317 45.1364 31.0877 44.9972 30.6303 44.7188C30.1758 44.4375 29.8249 44.0455 29.5778 43.5426C29.3335 43.0369 29.2113 42.4489 29.2113 41.7784C29.2113 41.108 29.3335 40.517 29.5778 40.0057C29.8249 39.4915 30.1687 39.0909 30.609 38.804C31.0522 38.5142 31.5692 38.3693 32.1602 38.3693C32.5011 38.3693 32.8377 38.4261 33.1701 38.5398C33.5025 38.6534 33.805 38.8381 34.0778 39.0938C34.3505 39.3466 34.5678 39.6818 34.7298 40.0994C34.8917 40.517 34.9727 41.0312 34.9727 41.642V42.0682H29.9272V41.1989H33.9499C33.9499 40.8295 33.8761 40.5 33.7283 40.2102C33.5835 39.9205 33.3761 39.6918 33.1062 39.5241C32.8391 39.3565 32.5238 39.2727 32.1602 39.2727C31.7596 39.2727 31.413 39.3722 31.1204 39.571C30.8306 39.767 30.6076 40.0227 30.4513 40.3381C30.2951 40.6534 30.217 40.9915 30.217 41.3523V41.9318C30.217 42.4261 30.3022 42.8452 30.4727 43.1889C30.646 43.5298 30.886 43.7898 31.1928 43.9688C31.4996 44.1449 31.8562 44.233 32.2624 44.233C32.5266 44.233 32.7653 44.196 32.9783 44.1222C33.1942 44.0455 33.3803 43.9318 33.5366 43.7812C33.6928 43.6278 33.8136 43.4375 33.8988 43.2102L34.8704 43.483C34.7681 43.8125 34.5962 44.1023 34.3548 44.3523C34.1133 44.5994 33.815 44.7926 33.4599 44.9318C33.1048 45.0682 32.7056 45.1364 32.2624 45.1364ZM36.5025 45V38.4545H37.4741V39.4432H37.5423C37.6616 39.1193 37.8775 38.8565 38.19 38.6548C38.5025 38.4531 38.8548 38.3523 39.2468 38.3523C39.3207 38.3523 39.413 38.3537 39.5238 38.3565C39.6346 38.3594 39.7184 38.3636 39.7752 38.3693V39.392C39.7411 39.3835 39.663 39.3707 39.5408 39.3537C39.4215 39.3338 39.2951 39.3239 39.1616 39.3239C38.8434 39.3239 38.5593 39.3906 38.3093 39.5241C38.0621 39.6548 37.8661 39.8366 37.7212 40.0696C37.5792 40.2997 37.5082 40.5625 37.5082 40.858V45H36.5025ZM44.2369 40.7898V41.7273H40.4187V40.7898H44.2369ZM48.6655 45.1364C48.0518 45.1364 47.5234 44.9915 47.0803 44.7017C46.6371 44.4119 46.2962 44.0128 46.0575 43.5043C45.8189 42.9957 45.6996 42.4148 45.6996 41.7614C45.6996 41.0966 45.8217 40.5099 46.0661 40.0014C46.3132 39.4901 46.657 39.0909 47.0973 38.804C47.5405 38.5142 48.0575 38.3693 48.6484 38.3693C49.1087 38.3693 49.5234 38.4545 49.8928 38.625C50.2621 38.7955 50.5646 39.0341 50.8004 39.3409C51.0362 39.6477 51.1825 40.0057 51.2393 40.4148H50.2337C50.157 40.1165 49.9865 39.8523 49.7223 39.6222C49.4609 39.3892 49.1087 39.2727 48.6655 39.2727C48.2734 39.2727 47.9297 39.375 47.6342 39.5795C47.3416 39.7812 47.1129 40.0668 46.9482 40.4361C46.7862 40.8026 46.7053 41.233 46.7053 41.7273C46.7053 42.233 46.7848 42.6733 46.9439 43.0483C47.1058 43.4233 47.3331 43.7145 47.6257 43.9219C47.9212 44.1293 48.2678 44.233 48.6655 44.233C48.9268 44.233 49.1641 44.1875 49.3771 44.0966C49.5902 44.0057 49.7706 43.875 49.9183 43.7045C50.0661 43.5341 50.1712 43.3295 50.2337 43.0909H51.2393C51.1825 43.4773 51.0419 43.8253 50.8175 44.1349C50.5959 44.4418 50.3018 44.6861 49.9354 44.8679C49.5717 45.0469 49.1484 45.1364 48.6655 45.1364ZM54.6357 45.1534C54.2209 45.1534 53.8445 45.0753 53.5064 44.919C53.1683 44.7599 52.8999 44.5312 52.701 44.233C52.5021 43.9318 52.4027 43.5682 52.4027 43.142C52.4027 42.767 52.4766 42.4631 52.6243 42.2301C52.772 41.9943 52.9695 41.8097 53.2166 41.6761C53.4638 41.5426 53.7365 41.4432 54.0348 41.3778C54.3359 41.3097 54.6385 41.2557 54.9425 41.2159C55.3402 41.1648 55.6626 41.1264 55.9098 41.1009C56.1598 41.0724 56.3416 41.0256 56.4553 40.9602C56.5717 40.8949 56.63 40.7812 56.63 40.6193V40.5852C56.63 40.1648 56.5149 39.8381 56.2848 39.6051C56.0575 39.3722 55.7124 39.2557 55.2493 39.2557C54.7692 39.2557 54.3928 39.3608 54.12 39.571C53.8473 39.7812 53.6555 40.0057 53.5447 40.2443L52.5902 39.9034C52.7607 39.5057 52.9879 39.196 53.272 38.9744C53.5589 38.75 53.8714 38.5937 54.2095 38.5057C54.5504 38.4148 54.8857 38.3693 55.2152 38.3693C55.4254 38.3693 55.6669 38.3949 55.9396 38.446C56.2152 38.4943 56.4808 38.5952 56.7365 38.7486C56.995 38.902 57.2095 39.1335 57.38 39.4432C57.5504 39.7528 57.6357 40.1676 57.6357 40.6875V45H56.63V44.1136H56.5788C56.5107 44.2557 56.397 44.4077 56.2379 44.5696C56.0788 44.7315 55.8672 44.8693 55.603 44.983C55.3388 45.0966 55.0163 45.1534 54.6357 45.1534ZM54.7891 44.25C55.1868 44.25 55.522 44.1719 55.7947 44.0156C56.0703 43.8594 56.2777 43.6577 56.4169 43.4105C56.5589 43.1634 56.63 42.9034 56.63 42.6307V41.7102C56.5874 41.7614 56.4936 41.8082 56.3487 41.8509C56.2067 41.8906 56.0419 41.9261 55.8544 41.9574C55.6697 41.9858 55.4893 42.0114 55.3132 42.0341C55.1399 42.054 54.9993 42.071 54.8913 42.0852C54.63 42.1193 54.3857 42.1747 54.1584 42.2514C53.9339 42.3253 53.7521 42.4375 53.6129 42.5881C53.4766 42.7358 53.4084 42.9375 53.4084 43.1932C53.4084 43.5426 53.5376 43.8068 53.7962 43.9858C54.0575 44.1619 54.3885 44.25 54.7891 44.25ZM60.4769 41.0625V45H59.4712V38.4545H60.4428V39.4773H60.5281C60.6815 39.1449 60.9144 38.8778 61.2269 38.6761C61.5394 38.4716 61.9428 38.3693 62.4371 38.3693C62.8803 38.3693 63.2681 38.4602 63.6005 38.642C63.9329 38.821 64.1914 39.0938 64.3761 39.4602C64.5607 39.8239 64.6531 40.2841 64.6531 40.8409V45H63.6474V40.9091C63.6474 40.3949 63.5138 39.9943 63.2468 39.7074C62.9798 39.4176 62.6133 39.2727 62.1474 39.2727C61.8263 39.2727 61.5394 39.3423 61.2866 39.4815C61.0366 39.6207 60.8391 39.8239 60.6942 40.0909C60.5494 40.358 60.4769 40.6818 60.4769 41.0625ZM71.6087 38.4545L69.1882 45H68.1655L65.745 38.4545H66.8359L68.6428 43.6705H68.7109L70.5178 38.4545H71.6087ZM74.663 45.1534C74.2482 45.1534 73.8718 45.0753 73.5337 44.919C73.1957 44.7599 72.9272 44.5312 72.7283 44.233C72.5295 43.9318 72.43 43.5682 72.43 43.142C72.43 42.767 72.5039 42.4631 72.6516 42.2301C72.7994 41.9943 72.9968 41.8097 73.244 41.6761C73.4911 41.5426 73.7638 41.4432 74.0621 41.3778C74.3633 41.3097 74.6658 41.2557 74.9698 41.2159C75.3675 41.1648 75.69 41.1264 75.9371 41.1009C76.1871 41.0724 76.369 41.0256 76.4826 40.9602C76.5991 40.8949 76.6573 40.7812 76.6573 40.6193V40.5852C76.6573 40.1648 76.5423 39.8381 76.3121 39.6051C76.0849 39.3722 75.7397 39.2557 75.2766 39.2557C74.7965 39.2557 74.4201 39.3608 74.1474 39.571C73.8746 39.7812 73.6829 40.0057 73.5721 40.2443L72.6175 39.9034C72.788 39.5057 73.0153 39.196 73.2994 38.9744C73.5863 38.75 73.8988 38.5937 74.2369 38.5057C74.5778 38.4148 74.913 38.3693 75.2425 38.3693C75.4528 38.3693 75.6942 38.3949 75.967 38.446C76.2425 38.4943 76.5082 38.5952 76.7638 38.7486C77.0224 38.902 77.2369 39.1335 77.4073 39.4432C77.5778 39.7528 77.663 40.1676 77.663 40.6875V45H76.6573V44.1136H76.6062C76.538 44.2557 76.4244 44.4077 76.2653 44.5696C76.1062 44.7315 75.8945 44.8693 75.6303 44.983C75.3661 45.0966 75.0437 45.1534 74.663 45.1534ZM74.8164 44.25C75.2141 44.25 75.5494 44.1719 75.8221 44.0156C76.0977 43.8594 76.305 43.6577 76.4442 43.4105C76.5863 43.1634 76.6573 42.9034 76.6573 42.6307V41.7102C76.6147 41.7614 76.521 41.8082 76.3761 41.8509C76.234 41.8906 76.0692 41.9261 75.8817 41.9574C75.6971 41.9858 75.5167 42.0114 75.3406 42.0341C75.1673 42.054 75.0266 42.071 74.9187 42.0852C74.6573 42.1193 74.413 42.1747 74.1857 42.2514C73.9613 42.3253 73.7795 42.4375 73.6403 42.5881C73.5039 42.7358 73.4357 42.9375 73.4357 43.1932C73.4357 43.5426 73.565 43.8068 73.8235 43.9858C74.0849 44.1619 74.4158 44.25 74.8164 44.25ZM84.1349 39.9205L83.2315 40.1761C83.1747 40.0256 83.0909 39.8793 82.9801 39.7372C82.8722 39.5923 82.7244 39.473 82.5369 39.3793C82.3494 39.2855 82.1094 39.2386 81.8168 39.2386C81.4162 39.2386 81.0824 39.331 80.8153 39.5156C80.5511 39.6974 80.419 39.929 80.419 40.2102C80.419 40.4602 80.5099 40.6577 80.6918 40.8026C80.8736 40.9474 81.1577 41.0682 81.544 41.1648L82.5156 41.4034C83.1009 41.5455 83.5369 41.7628 83.8239 42.0554C84.1108 42.3452 84.2543 42.7187 84.2543 43.1761C84.2543 43.5511 84.1463 43.8864 83.9304 44.1818C83.7173 44.4773 83.419 44.7102 83.0355 44.8807C82.652 45.0511 82.206 45.1364 81.6974 45.1364C81.0298 45.1364 80.4773 44.9915 80.0398 44.7017C79.6023 44.4119 79.3253 43.9886 79.2088 43.4318L80.1634 43.1932C80.2543 43.5455 80.4261 43.8097 80.679 43.9858C80.9347 44.1619 81.2685 44.25 81.6804 44.25C82.1491 44.25 82.5213 44.1506 82.7969 43.9517C83.0753 43.75 83.2145 43.5085 83.2145 43.2273C83.2145 43 83.1349 42.8097 82.9759 42.6562C82.8168 42.5 82.5724 42.3835 82.2429 42.3068L81.152 42.0511C80.5526 41.9091 80.1122 41.6889 79.831 41.3906C79.5526 41.0895 79.4134 40.7131 79.4134 40.2614C79.4134 39.892 79.517 39.5653 79.7244 39.2812C79.9347 38.9972 80.2202 38.7741 80.581 38.6122C80.9446 38.4503 81.3565 38.3693 81.8168 38.3693C82.4645 38.3693 82.973 38.5114 83.3423 38.7955C83.7145 39.0795 83.9787 39.4545 84.1349 39.9205Z" fill="black"/>
<path d="M35.9261 8.27273V17H34.9205V8.27273H35.9261ZM40.4272 17.1364C39.8363 17.1364 39.3178 16.9957 38.8718 16.7145C38.4286 16.4332 38.082 16.0398 37.832 15.5341C37.5849 15.0284 37.4613 14.4375 37.4613 13.7614C37.4613 13.0795 37.5849 12.4844 37.832 11.9759C38.082 11.4673 38.4286 11.0724 38.8718 10.7912C39.3178 10.5099 39.8363 10.3693 40.4272 10.3693C41.0181 10.3693 41.5352 10.5099 41.9783 10.7912C42.4244 11.0724 42.771 11.4673 43.0181 11.9759C43.2681 12.4844 43.3931 13.0795 43.3931 13.7614C43.3931 14.4375 43.2681 15.0284 43.0181 15.5341C42.771 16.0398 42.4244 16.4332 41.9783 16.7145C41.5352 16.9957 41.0181 17.1364 40.4272 17.1364ZM40.4272 16.233C40.8761 16.233 41.2454 16.1179 41.5352 15.8878C41.8249 15.6577 42.0394 15.3551 42.1786 14.9801C42.3178 14.6051 42.3874 14.1989 42.3874 13.7614C42.3874 13.3239 42.3178 12.9162 42.1786 12.5384C42.0394 12.1605 41.8249 11.8551 41.5352 11.6222C41.2454 11.3892 40.8761 11.2727 40.4272 11.2727C39.9783 11.2727 39.609 11.3892 39.3192 11.6222C39.0295 11.8551 38.815 12.1605 38.6758 12.5384C38.5366 12.9162 38.467 13.3239 38.467 13.7614C38.467 14.1989 38.5366 14.6051 38.6758 14.9801C38.815 15.3551 39.0295 15.6577 39.3192 15.8878C39.609 16.1179 39.9783 16.233 40.4272 16.233ZM46.1886 17L44.1942 10.4545H45.2511L46.6658 15.4659H46.734L48.1317 10.4545H49.2056L50.5863 15.4489H50.6545L52.0692 10.4545H53.1261L51.1317 17H50.1431L48.7113 11.9716H48.609L47.1772 17H46.1886ZM56.9773 17.1364C56.3466 17.1364 55.8026 16.9972 55.3452 16.7188C54.8906 16.4375 54.5398 16.0455 54.2926 15.5426C54.0483 15.0369 53.9261 14.4489 53.9261 13.7784C53.9261 13.108 54.0483 12.517 54.2926 12.0057C54.5398 11.4915 54.8835 11.0909 55.3239 10.804C55.767 10.5142 56.2841 10.3693 56.875 10.3693C57.2159 10.3693 57.5526 10.4261 57.8849 10.5398C58.2173 10.6534 58.5199 10.8381 58.7926 11.0938C59.0653 11.3466 59.2827 11.6818 59.4446 12.0994C59.6065 12.517 59.6875 13.0312 59.6875 13.642V14.0682H54.642V13.1989H58.6648C58.6648 12.8295 58.5909 12.5 58.4432 12.2102C58.2983 11.9205 58.0909 11.6918 57.821 11.5241C57.554 11.3565 57.2386 11.2727 56.875 11.2727C56.4744 11.2727 56.1278 11.3722 55.8352 11.571C55.5455 11.767 55.3224 12.0227 55.1662 12.3381C55.0099 12.6534 54.9318 12.9915 54.9318 13.3523V13.9318C54.9318 14.4261 55.017 14.8452 55.1875 15.1889C55.3608 15.5298 55.6009 15.7898 55.9077 15.9688C56.2145 16.1449 56.571 16.233 56.9773 16.233C57.2415 16.233 57.4801 16.196 57.6932 16.1222C57.9091 16.0455 58.0952 15.9318 58.2514 15.7812C58.4077 15.6278 58.5284 15.4375 58.6136 15.2102L59.5852 15.483C59.483 15.8125 59.3111 16.1023 59.0696 16.3523C58.8281 16.5994 58.5298 16.7926 58.1747 16.9318C57.8196 17.0682 57.4205 17.1364 56.9773 17.1364ZM61.2173 17V10.4545H62.1889V11.4432H62.2571C62.3764 11.1193 62.5923 10.8565 62.9048 10.6548C63.2173 10.4531 63.5696 10.3523 63.9616 10.3523C64.0355 10.3523 64.1278 10.3537 64.2386 10.3565C64.3494 10.3594 64.4332 10.3636 64.4901 10.3693V11.392C64.456 11.3835 64.3778 11.3707 64.2557 11.3537C64.1364 11.3338 64.0099 11.3239 63.8764 11.3239C63.5582 11.3239 63.2741 11.3906 63.0241 11.5241C62.777 11.6548 62.581 11.8366 62.4361 12.0696C62.294 12.2997 62.223 12.5625 62.223 12.858V17H61.2173ZM68.9517 12.7898V13.7273H65.1335V12.7898H68.9517ZM73.3803 17.1364C72.7667 17.1364 72.2383 16.9915 71.7951 16.7017C71.3519 16.4119 71.011 16.0128 70.7724 15.5043C70.5337 14.9957 70.4144 14.4148 70.4144 13.7614C70.4144 13.0966 70.5366 12.5099 70.7809 12.0014C71.0281 11.4901 71.3718 11.0909 71.8121 10.804C72.2553 10.5142 72.7724 10.3693 73.3633 10.3693C73.8235 10.3693 74.2383 10.4545 74.6076 10.625C74.9769 10.7955 75.2795 11.0341 75.5153 11.3409C75.7511 11.6477 75.8974 12.0057 75.9542 12.4148H74.9485C74.8718 12.1165 74.7013 11.8523 74.4371 11.6222C74.1758 11.3892 73.8235 11.2727 73.3803 11.2727C72.9883 11.2727 72.6445 11.375 72.3491 11.5795C72.0565 11.7812 71.8278 12.0668 71.663 12.4361C71.5011 12.8026 71.4201 13.233 71.4201 13.7273C71.4201 14.233 71.4996 14.6733 71.6587 15.0483C71.8207 15.4233 72.0479 15.7145 72.3406 15.9219C72.636 16.1293 72.9826 16.233 73.3803 16.233C73.6417 16.233 73.8789 16.1875 74.092 16.0966C74.305 16.0057 74.4854 15.875 74.6332 15.7045C74.7809 15.5341 74.886 15.3295 74.9485 15.0909H75.9542C75.8974 15.4773 75.7567 15.8253 75.5323 16.1349C75.3107 16.4418 75.0167 16.6861 74.6502 16.8679C74.2866 17.0469 73.8633 17.1364 73.3803 17.1364ZM79.3505 17.1534C78.9357 17.1534 78.5593 17.0753 78.2212 16.919C77.8832 16.7599 77.6147 16.5312 77.4158 16.233C77.217 15.9318 77.1175 15.5682 77.1175 15.142C77.1175 14.767 77.1914 14.4631 77.3391 14.2301C77.4869 13.9943 77.6843 13.8097 77.9315 13.6761C78.1786 13.5426 78.4513 13.4432 78.7496 13.3778C79.0508 13.3097 79.3533 13.2557 79.6573 13.2159C80.055 13.1648 80.3775 13.1264 80.6246 13.1009C80.8746 13.0724 81.0565 13.0256 81.1701 12.9602C81.2866 12.8949 81.3448 12.7812 81.3448 12.6193V12.5852C81.3448 12.1648 81.2298 11.8381 80.9996 11.6051C80.7724 11.3722 80.4272 11.2557 79.9641 11.2557C79.484 11.2557 79.1076 11.3608 78.8349 11.571C78.5621 11.7812 78.3704 12.0057 78.2596 12.2443L77.305 11.9034C77.4755 11.5057 77.7028 11.196 77.9869 10.9744C78.2738 10.75 78.5863 10.5937 78.9244 10.5057C79.2653 10.4148 79.6005 10.3693 79.93 10.3693C80.1403 10.3693 80.3817 10.3949 80.6545 10.446C80.93 10.4943 81.1957 10.5952 81.4513 10.7486C81.7099 10.902 81.9244 11.1335 82.0948 11.4432C82.2653 11.7528 82.3505 12.1676 82.3505 12.6875V17H81.3448V16.1136H81.2937C81.2255 16.2557 81.1119 16.4077 80.9528 16.5696C80.7937 16.7315 80.582 16.8693 80.3178 16.983C80.0536 17.0966 79.7312 17.1534 79.3505 17.1534ZM79.5039 16.25C79.9016 16.25 80.2369 16.1719 80.5096 16.0156C80.7852 15.8594 80.9925 15.6577 81.1317 15.4105C81.2738 15.1634 81.3448 14.9034 81.3448 14.6307V13.7102C81.3022 13.7614 81.2085 13.8082 81.0636 13.8509C80.9215 13.8906 80.7567 13.9261 80.5692 13.9574C80.3846 13.9858 80.2042 14.0114 80.0281 14.0341C79.8548 14.054 79.7141 14.071 79.6062 14.0852C79.3448 14.1193 79.1005 14.1747 78.8732 14.2514C78.6488 14.3253 78.467 14.4375 78.3278 14.5881C78.1914 14.7358 78.1232 14.9375 78.1232 15.1932C78.1232 15.5426 78.2525 15.8068 78.511 15.9858C78.7724 16.1619 79.1033 16.25 79.5039 16.25ZM85.1918 13.0625V17H84.1861V10.4545H85.1577V11.4773H85.2429C85.3963 11.1449 85.6293 10.8778 85.9418 10.6761C86.2543 10.4716 86.6577 10.3693 87.152 10.3693C87.5952 10.3693 87.983 10.4602 88.3153 10.642C88.6477 10.821 88.9063 11.0938 89.0909 11.4602C89.2756 11.8239 89.3679 12.2841 89.3679 12.8409V17H88.3622V12.9091C88.3622 12.3949 88.2287 11.9943 87.9616 11.7074C87.6946 11.4176 87.3281 11.2727 86.8622 11.2727C86.5412 11.2727 86.2543 11.3423 86.0014 11.4815C85.7514 11.6207 85.554 11.8239 85.4091 12.0909C85.2642 12.358 85.1918 12.6818 85.1918 13.0625ZM96.3235 10.4545L93.9031 17H92.8803L90.4599 10.4545H91.5508L93.3576 15.6705H93.4258L95.2326 10.4545H96.3235ZM99.3778 17.1534C98.9631 17.1534 98.5866 17.0753 98.2486 16.919C97.9105 16.7599 97.642 16.5312 97.4432 16.233C97.2443 15.9318 97.1449 15.5682 97.1449 15.142C97.1449 14.767 97.2188 14.4631 97.3665 14.2301C97.5142 13.9943 97.7116 13.8097 97.9588 13.6761C98.206 13.5426 98.4787 13.4432 98.777 13.3778C99.0781 13.3097 99.3807 13.2557 99.6847 13.2159C100.082 13.1648 100.405 13.1264 100.652 13.1009C100.902 13.0724 101.084 13.0256 101.197 12.9602C101.314 12.8949 101.372 12.7812 101.372 12.6193V12.5852C101.372 12.1648 101.257 11.8381 101.027 11.6051C100.8 11.3722 100.455 11.2557 99.9915 11.2557C99.5114 11.2557 99.1349 11.3608 98.8622 11.571C98.5895 11.7812 98.3977 12.0057 98.2869 12.2443L97.3324 11.9034C97.5028 11.5057 97.7301 11.196 98.0142 10.9744C98.3011 10.75 98.6136 10.5937 98.9517 10.5057C99.2926 10.4148 99.6278 10.3693 99.9574 10.3693C100.168 10.3693 100.409 10.3949 100.682 10.446C100.957 10.4943 101.223 10.5952 101.479 10.7486C101.737 10.902 101.952 11.1335 102.122 11.4432C102.293 11.7528 102.378 12.1676 102.378 12.6875V17H101.372V16.1136H101.321C101.253 16.2557 101.139 16.4077 100.98 16.5696C100.821 16.7315 100.609 16.8693 100.345 16.983C100.081 17.0966 99.7585 17.1534 99.3778 17.1534ZM99.5312 16.25C99.929 16.25 100.264 16.1719 100.537 16.0156C100.813 15.8594 101.02 15.6577 101.159 15.4105C101.301 15.1634 101.372 14.9034 101.372 14.6307V13.7102C101.33 13.7614 101.236 13.8082 101.091 13.8509C100.949 13.8906 100.784 13.9261 100.597 13.9574C100.412 13.9858 100.232 14.0114 100.055 14.0341C99.8821 14.054 99.7415 14.071 99.6335 14.0852C99.3722 14.1193 99.1278 14.1747 98.9006 14.2514C98.6761 14.3253 98.4943 14.4375 98.3551 14.5881C98.2188 14.7358 98.1506 14.9375 98.1506 15.1932C98.1506 15.5426 98.2798 15.8068 98.5384 15.9858C98.7997 16.1619 99.1307 16.25 99.5312 16.25ZM108.85 11.9205L107.946 12.1761C107.89 12.0256 107.806 11.8793 107.695 11.7372C107.587 11.5923 107.439 11.473 107.252 11.3793C107.064 11.2855 106.824 11.2386 106.532 11.2386C106.131 11.2386 105.797 11.331 105.53 11.5156C105.266 11.6974 105.134 11.929 105.134 12.2102C105.134 12.4602 105.225 12.6577 105.407 12.8026C105.588 12.9474 105.873 13.0682 106.259 13.1648L107.23 13.4034C107.816 13.5455 108.252 13.7628 108.539 14.0554C108.826 14.3452 108.969 14.7187 108.969 15.1761C108.969 15.5511 108.861 15.8864 108.645 16.1818C108.432 16.4773 108.134 16.7102 107.75 16.8807C107.367 17.0511 106.921 17.1364 106.412 17.1364C105.745 17.1364 105.192 16.9915 104.755 16.7017C104.317 16.4119 104.04 15.9886 103.924 15.4318L104.878 15.1932C104.969 15.5455 105.141 15.8097 105.394 15.9858C105.65 16.1619 105.983 16.25 106.395 16.25C106.864 16.25 107.236 16.1506 107.512 15.9517C107.79 15.75 107.929 15.5085 107.929 15.2273C107.929 15 107.85 14.8097 107.691 14.6562C107.532 14.5 107.287 14.3835 106.958 14.3068L105.867 14.0511C105.267 13.9091 104.827 13.6889 104.546 13.3906C104.267 13.0895 104.128 12.7131 104.128 12.2614C104.128 11.892 104.232 11.5653 104.439 11.2812C104.65 10.9972 104.935 10.7741 105.296 10.6122C105.659 10.4503 106.071 10.3693 106.532 10.3693C107.179 10.3693 107.688 10.5114 108.057 10.7955C108.429 11.0795 108.694 11.4545 108.85 11.9205Z" fill="black"/>
</svg>
