<svg width="209" height="284" viewBox="0 0 209 284" fill="none" xmlns="http://www.w3.org/2000/svg">
<rect x="9" y="72" width="187" height="187" fill="#D9D9D9"/>
<rect x="96" y="66" width="12" height="12" fill="#0090BD"/>
<rect x="96" width="12" height="12" fill="#0090BD"/>
<rect x="3" y="66" width="12" height="12" fill="#0090BD"/>
<rect x="3" y="159" width="12" height="12" fill="#0090BD"/>
<rect x="3" y="253" width="12" height="12" fill="#0090BD"/>
<rect x="190" y="66" width="12" height="12" fill="#0090BD"/>
<rect x="190" y="159" width="12" height="12" fill="#0090BD"/>
<rect x="190" y="253" width="12" height="12" fill="#0090BD"/>
<rect x="96" y="253" width="12" height="12" fill="#0090BD"/>
<path d="M90.0568 19.2727H91.3182L94.2841 26.517H94.3864L97.3523 19.2727H98.6136V28H97.625V21.3693H97.5398L94.8125 28H93.858L91.1307 21.3693H91.0455V28H90.0568V19.2727ZM100.255 20.2102V19.2727H106.801V20.2102H104.056V28H103V20.2102H100.255ZM108.432 28V19.2727H111.381C112.063 19.2727 112.622 19.3892 113.06 19.6222C113.497 19.8523 113.821 20.169 114.031 20.5724C114.241 20.9759 114.347 21.4347 114.347 21.9489C114.347 22.4631 114.241 22.919 114.031 23.3168C113.821 23.7145 113.499 24.027 113.064 24.2543C112.629 24.4787 112.074 24.5909 111.398 24.5909H109.011V23.6364H111.364C111.83 23.6364 112.205 23.5682 112.489 23.4318C112.776 23.2955 112.983 23.1023 113.111 22.8523C113.241 22.5994 113.307 22.2983 113.307 21.9489C113.307 21.5994 113.241 21.294 113.111 21.0327C112.98 20.7713 112.771 20.5696 112.484 20.4276C112.197 20.2827 111.818 20.2102 111.347 20.2102H109.489V28H108.432ZM112.54 24.0795L114.688 28H113.46L111.347 24.0795H112.54Z" fill="black"/>
<path d="M94.0568 85.2727H95.3182L98.2841 92.517H98.3864L101.352 85.2727H102.614V94H101.625V87.3693H101.54L98.8125 94H97.858L95.1307 87.3693H95.0455V94H94.0568V85.2727ZM104.255 86.2102V85.2727H110.801V86.2102H108.056V94H107V86.2102H104.255Z" fill="black"/>
<path d="M0.579545 86.2102V85.2727H7.125V86.2102H4.38068V94H3.32386V86.2102H0.579545ZM8.75604 94V85.2727H9.81286V93.0625H13.8697V94H8.75604Z" fill="black"/>
<path d="M3.05682 178.273H4.31818L7.28409 185.517H7.38636L10.3523 178.273H11.6136V187H10.625V180.369H10.5398L7.8125 187H6.85795L4.13068 180.369H4.04545V187H3.05682V178.273ZM13.7326 187V178.273H14.7894V186.062H18.8462V187H13.7326Z" fill="black"/>
<path d="M4.05682 281V272.273H7.10795C7.71591 272.273 8.21733 272.378 8.61222 272.588C9.0071 272.795 9.30114 273.075 9.49432 273.428C9.6875 273.777 9.78409 274.165 9.78409 274.591C9.78409 274.966 9.71733 275.276 9.58381 275.52C9.45313 275.764 9.27983 275.957 9.06392 276.099C8.85085 276.241 8.61932 276.347 8.36932 276.415V276.5C8.63636 276.517 8.90483 276.611 9.17472 276.781C9.4446 276.952 9.67045 277.196 9.85227 277.514C10.0341 277.832 10.125 278.222 10.125 278.682C10.125 279.119 10.0256 279.513 9.8267 279.862C9.62784 280.212 9.31392 280.489 8.88494 280.693C8.45597 280.898 7.89773 281 7.21023 281H4.05682ZM5.11364 280.062H7.21023C7.90057 280.062 8.39063 279.929 8.6804 279.662C8.97301 279.392 9.11932 279.065 9.11932 278.682C9.11932 278.386 9.04403 278.114 8.89347 277.864C8.7429 277.611 8.52841 277.409 8.25 277.259C7.97159 277.105 7.64205 277.028 7.26136 277.028H5.11364V280.062ZM5.11364 276.108H7.07386C7.39205 276.108 7.67898 276.045 7.93466 275.92C8.19318 275.795 8.39773 275.619 8.5483 275.392C8.7017 275.165 8.77841 274.898 8.77841 274.591C8.77841 274.207 8.64489 273.882 8.37784 273.615C8.1108 273.345 7.6875 273.21 7.10795 273.21H5.11364V276.108ZM11.8615 281V272.273H12.9183V280.062H16.9751V281H11.8615Z" fill="black"/>
<path d="M97.0568 272.273H98.3182L101.284 279.517H101.386L104.352 272.273H105.614V281H104.625V274.369H104.54L101.812 281H100.858L98.1307 274.369H98.0455V281H97.0568V272.273ZM107.733 281V272.273H110.784C111.392 272.273 111.893 272.378 112.288 272.588C112.683 272.795 112.977 273.075 113.17 273.428C113.363 273.777 113.46 274.165 113.46 274.591C113.46 274.966 113.393 275.276 113.26 275.52C113.129 275.764 112.956 275.957 112.74 276.099C112.527 276.241 112.295 276.347 112.045 276.415V276.5C112.312 276.517 112.581 276.611 112.85 276.781C113.12 276.952 113.346 277.196 113.528 277.514C113.71 277.832 113.801 278.222 113.801 278.682C113.801 279.119 113.701 279.513 113.502 279.862C113.304 280.212 112.99 280.489 112.561 280.693C112.132 280.898 111.574 281 110.886 281H107.733ZM108.789 280.062H110.886C111.576 280.062 112.066 279.929 112.356 279.662C112.649 279.392 112.795 279.065 112.795 278.682C112.795 278.386 112.72 278.114 112.569 277.864C112.419 277.611 112.204 277.409 111.926 277.259C111.647 277.105 111.318 277.028 110.937 277.028H108.789V280.062ZM108.789 276.108H110.75C111.068 276.108 111.355 276.045 111.61 275.92C111.869 275.795 112.074 275.619 112.224 275.392C112.377 275.165 112.454 274.898 112.454 274.591C112.454 274.207 112.321 273.882 112.054 273.615C111.787 273.345 111.363 273.21 110.784 273.21H108.789V276.108Z" fill="black"/>
<path d="M191.057 281V272.273H194.108C194.716 272.273 195.217 272.378 195.612 272.588C196.007 272.795 196.301 273.075 196.494 273.428C196.688 273.777 196.784 274.165 196.784 274.591C196.784 274.966 196.717 275.276 196.584 275.52C196.453 275.764 196.28 275.957 196.064 276.099C195.851 276.241 195.619 276.347 195.369 276.415V276.5C195.636 276.517 195.905 276.611 196.175 276.781C196.445 276.952 196.67 277.196 196.852 277.514C197.034 277.832 197.125 278.222 197.125 278.682C197.125 279.119 197.026 279.513 196.827 279.862C196.628 280.212 196.314 280.489 195.885 280.693C195.456 280.898 194.898 281 194.21 281H191.057ZM192.114 280.062H194.21C194.901 280.062 195.391 279.929 195.68 279.662C195.973 279.392 196.119 279.065 196.119 278.682C196.119 278.386 196.044 278.114 195.893 277.864C195.743 277.611 195.528 277.409 195.25 277.259C194.972 277.105 194.642 277.028 194.261 277.028H192.114V280.062ZM192.114 276.108H194.074C194.392 276.108 194.679 276.045 194.935 275.92C195.193 275.795 195.398 275.619 195.548 275.392C195.702 275.165 195.778 274.898 195.778 274.591C195.778 274.207 195.645 273.882 195.378 273.615C195.111 273.345 194.688 273.21 194.108 273.21H192.114V276.108ZM198.862 281V272.273H201.81C202.492 272.273 203.052 272.389 203.489 272.622C203.927 272.852 204.251 273.169 204.461 273.572C204.671 273.976 204.776 274.435 204.776 274.949C204.776 275.463 204.671 275.919 204.461 276.317C204.251 276.714 203.928 277.027 203.494 277.254C203.059 277.479 202.504 277.591 201.827 277.591H199.441V276.636H201.793C202.259 276.636 202.634 276.568 202.918 276.432C203.205 276.295 203.413 276.102 203.54 275.852C203.671 275.599 203.737 275.298 203.737 274.949C203.737 274.599 203.671 274.294 203.54 274.033C203.41 273.771 203.201 273.57 202.914 273.428C202.627 273.283 202.248 273.21 201.776 273.21H199.918V281H198.862ZM202.969 277.08L205.117 281H203.89L201.776 277.08H202.969Z" fill="black"/>
<path d="M191.057 178.273H192.318L195.284 185.517H195.386L198.352 178.273H199.614V187H198.625V180.369H198.54L195.812 187H194.858L192.131 180.369H192.045V187H191.057V178.273ZM201.733 187V178.273H204.681C205.363 178.273 205.923 178.389 206.36 178.622C206.798 178.852 207.122 179.169 207.332 179.572C207.542 179.976 207.647 180.435 207.647 180.949C207.647 181.463 207.542 181.919 207.332 182.317C207.122 182.714 206.799 183.027 206.365 183.254C205.93 183.479 205.375 183.591 204.699 183.591H202.312V182.636H204.664C205.13 182.636 205.505 182.568 205.789 182.432C206.076 182.295 206.284 182.102 206.412 181.852C206.542 181.599 206.608 181.298 206.608 180.949C206.608 180.599 206.542 180.294 206.412 180.033C206.281 179.771 206.072 179.57 205.785 179.428C205.498 179.283 205.119 179.21 204.647 179.21H202.789V187H201.733ZM205.841 183.08L207.988 187H206.761L204.647 183.08H205.841Z" fill="black"/>
<path d="M188.58 86.2102V85.2727H195.125V86.2102H192.381V94H191.324V86.2102H188.58ZM196.756 94V85.2727H199.705C200.387 85.2727 200.946 85.3892 201.384 85.6222C201.821 85.8523 202.145 86.169 202.355 86.5724C202.566 86.9759 202.671 87.4347 202.671 87.9489C202.671 88.4631 202.566 88.919 202.355 89.3168C202.145 89.7145 201.823 90.027 201.388 90.2543C200.953 90.4787 200.398 90.5909 199.722 90.5909H197.336V89.6364H199.688C200.154 89.6364 200.529 89.5682 200.813 89.4318C201.1 89.2955 201.307 89.1023 201.435 88.8523C201.566 88.5994 201.631 88.2983 201.631 87.9489C201.631 87.5994 201.566 87.294 201.435 87.0327C201.304 86.7713 201.096 86.5696 200.809 86.4276C200.522 86.2827 200.142 86.2102 199.671 86.2102H197.813V94H196.756ZM200.864 90.0795L203.012 94H201.784L199.671 90.0795H200.864Z" fill="black"/>
</svg>
